<svg xmlns="http://www.w3.org/2000/svg" xmlns:xlink="http://www.w3.org/1999/xlink" contentStyleType="text/css" height="1585px" preserveAspectRatio="none" style="width:2036px;height:1585px;background:#1B1B1B;" version="1.1" viewBox="0 0 2036 1585" width="2036px" zoomAndPan="magnify"><defs/><g><rect fill="#1B1B1B" height="1585" style="stroke:none;stroke-width:1.0;" width="2036" x="0" y="0"/><line style="stroke:#E7E7E7;stroke-width:0.5;stroke-dasharray:5.0,5.0;" x1="45" x2="45" y1="76.9453" y2="1549.7344"/><line style="stroke:#E7E7E7;stroke-width:0.5;stroke-dasharray:5.0,5.0;" x1="143.1816" x2="143.1816" y1="36.2969" y2="1549.7344"/><line style="stroke:#E7E7E7;stroke-width:0.5;stroke-dasharray:5.0,5.0;" x1="250.4033" x2="250.4033" y1="118.2422" y2="1549.7344"/><line style="stroke:#E7E7E7;stroke-width:0.5;stroke-dasharray:5.0,5.0;" x1="360.5107" x2="360.5107" y1="159.5391" y2="1549.7344"/><line style="stroke:#E7E7E7;stroke-width:0.5;stroke-dasharray:5.0,5.0;" x1="461.1836" x2="461.1836" y1="200.8359" y2="1549.7344"/><line style="stroke:#E7E7E7;stroke-width:0.5;stroke-dasharray:5.0,5.0;" x1="559.3652" x2="559.3652" y1="36.2969" y2="1549.7344"/><line style="stroke:#E7E7E7;stroke-width:0.5;stroke-dasharray:5.0,5.0;" x1="666.5869" x2="666.5869" y1="242.1328" y2="1549.7344"/><line style="stroke:#E7E7E7;stroke-width:0.5;stroke-dasharray:5.0,5.0;" x1="776.6943" x2="776.6943" y1="283.4297" y2="1549.7344"/><line style="stroke:#E7E7E7;stroke-width:0.5;stroke-dasharray:5.0,5.0;" x1="896.3672" x2="896.3672" y1="353.8594" y2="1549.7344"/><line style="stroke:#E7E7E7;stroke-width:0.5;stroke-dasharray:5.0,5.0;" x1="1026.0029" x2="1026.0029" y1="453.4219" y2="1549.7344"/><line style="stroke:#E7E7E7;stroke-width:0.5;stroke-dasharray:5.0,5.0;" x1="1137.6387" x2="1137.6387" y1="523.8516" y2="1549.7344"/><line style="stroke:#E7E7E7;stroke-width:0.5;stroke-dasharray:5.0,5.0;" x1="1236.603" x2="1236.603" y1="36.2969" y2="1549.7344"/><line style="stroke:#E7E7E7;stroke-width:0.5;stroke-dasharray:5.0,5.0;" x1="1344.6074" x2="1344.6074" y1="565.1484" y2="1549.7344"/><line style="stroke:#E7E7E7;stroke-width:0.5;stroke-dasharray:5.0,5.0;" x1="1455.2803" x2="1455.2803" y1="606.4453" y2="1549.7344"/><line style="stroke:#E7E7E7;stroke-width:0.5;stroke-dasharray:5.0,5.0;" x1="1575.9531" x2="1575.9531" y1="676.875" y2="1549.7344"/><line style="stroke:#E7E7E7;stroke-width:0.5;stroke-dasharray:5.0,5.0;" x1="1707.1543" x2="1707.1543" y1="805.5703" y2="1549.7344"/><line style="stroke:#E7E7E7;stroke-width:0.5;stroke-dasharray:5.0,5.0;" x1="1838.3555" x2="1838.3555" y1="992.5313" y2="1549.7344"/><line style="stroke:#E7E7E7;stroke-width:0.5;stroke-dasharray:5.0,5.0;" x1="1969.5566" x2="1969.5566" y1="1208.625" y2="1549.7344"/><rect fill="#222222" height="30.2969" rx="2.5" ry="2.5" style="stroke:#E7E7E7;stroke-width:0.5;" width="80.8008" x="5" y="1548.7344"/><text fill="#FFFFFF" font-family="sans-serif" font-size="14" lengthAdjust="spacing" textLength="66.8008" x="12" y="1568.7295">Oyente_1</text><rect fill="#222222" height="30.2969" rx="2.5" ry="2.5" style="stroke:#E7E7E7;stroke-width:0.5;" width="84.8408" x="101.1816" y="5"/><text fill="#FFFFFF" font-family="sans-serif" font-size="14" lengthAdjust="spacing" textLength="70.8408" x="108.1816" y="24.9951">Proceso_1</text><rect fill="#222222" height="30.2969" rx="2.5" ry="2.5" style="stroke:#E7E7E7;stroke-width:0.5;" width="84.8408" x="101.1816" y="1548.7344"/><text fill="#FFFFFF" font-family="sans-serif" font-size="14" lengthAdjust="spacing" textLength="70.8408" x="108.1816" y="1568.7295">Proceso_1</text><rect fill="#222222" height="30.2969" rx="2.5" ry="2.5" style="stroke:#E7E7E7;stroke-width:0.5;" width="99.1074" x="201.4033" y="1548.7344"/><text fill="#FFFFFF" font-family="sans-serif" font-size="14" lengthAdjust="spacing" textLength="85.1074" x="208.4033" y="1568.7295">Escritor_1_2</text><rect fill="#222222" height="30.2969" rx="2.5" ry="2.5" style="stroke:#E7E7E7;stroke-width:0.5;" width="100.6729" x="310.5107" y="1548.7344"/><text fill="#FFFFFF" font-family="sans-serif" font-size="14" lengthAdjust="spacing" textLength="86.6729" x="317.5107" y="1568.7295">Escritor_1_N</text><rect fill="#222222" height="30.2969" rx="2.5" ry="2.5" style="stroke:#E7E7E7;stroke-width:0.5;" width="80.8008" x="421.1836" y="1548.7344"/><text fill="#FFFFFF" font-family="sans-serif" font-size="14" lengthAdjust="spacing" textLength="66.8008" x="428.1836" y="1568.7295">Oyente_2</text><rect fill="#222222" height="30.2969" rx="2.5" ry="2.5" style="stroke:#E7E7E7;stroke-width:0.5;" width="84.8408" x="517.3652" y="5"/><text fill="#FFFFFF" font-family="sans-serif" font-size="14" lengthAdjust="spacing" textLength="70.8408" x="524.3652" y="24.9951">Proceso_2</text><rect fill="#222222" height="30.2969" rx="2.5" ry="2.5" style="stroke:#E7E7E7;stroke-width:0.5;" width="84.8408" x="517.3652" y="1548.7344"/><text fill="#FFFFFF" font-family="sans-serif" font-size="14" lengthAdjust="spacing" textLength="70.8408" x="524.3652" y="1568.7295">Proceso_2</text><rect fill="#222222" height="30.2969" rx="2.5" ry="2.5" style="stroke:#E7E7E7;stroke-width:0.5;" width="99.1074" x="617.5869" y="1548.7344"/><text fill="#FFFFFF" font-family="sans-serif" font-size="14" lengthAdjust="spacing" textLength="85.1074" x="624.5869" y="1568.7295">Escritor_2_1</text><rect fill="#222222" height="30.2969" rx="2.5" ry="2.5" style="stroke:#E7E7E7;stroke-width:0.5;" width="100.6729" x="726.6943" y="1548.7344"/><text fill="#FFFFFF" font-family="sans-serif" font-size="14" lengthAdjust="spacing" textLength="86.6729" x="733.6943" y="1568.7295">Escritor_2_N</text><rect fill="#222222" height="30.2969" rx="2.5" ry="2.5" style="stroke:#E7E7E7;stroke-width:0.5;" width="119.6357" x="837.3672" y="1548.7344"/><text fill="#FFFFFF" font-family="sans-serif" font-size="14" lengthAdjust="spacing" textLength="105.6357" x="844.3672" y="1568.7295">Manejador_2_1</text><rect fill="#222222" height="30.2969" rx="2.5" ry="2.5" style="stroke:#E7E7E7;stroke-width:0.5;" width="119.6357" x="967.0029" y="1548.7344"/><text fill="#FFFFFF" font-family="sans-serif" font-size="14" lengthAdjust="spacing" textLength="105.6357" x="974.0029" y="1568.7295">Manejador_1_2</text><rect fill="#222222" height="30.2969" rx="2.5" ry="2.5" style="stroke:#E7E7E7;stroke-width:0.5;" width="82.3662" x="1096.6387" y="1548.7344"/><text fill="#FFFFFF" font-family="sans-serif" font-size="14" lengthAdjust="spacing" textLength="68.3662" x="1103.6387" y="1568.7295">Oyente_N</text><rect fill="#222222" height="30.2969" rx="2.5" ry="2.5" style="stroke:#E7E7E7;stroke-width:0.5;" width="86.4063" x="1193.603" y="5"/><text fill="#FFFFFF" font-family="sans-serif" font-size="14" lengthAdjust="spacing" textLength="72.4063" x="1200.603" y="24.9951">Proceso_N</text><rect fill="#222222" height="30.2969" rx="2.5" ry="2.5" style="stroke:#E7E7E7;stroke-width:0.5;" width="86.4063" x="1193.603" y="1548.7344"/><text fill="#FFFFFF" font-family="sans-serif" font-size="14" lengthAdjust="spacing" textLength="72.4063" x="1200.603" y="1568.7295">Proceso_N</text><rect fill="#222222" height="30.2969" rx="2.5" ry="2.5" style="stroke:#E7E7E7;stroke-width:0.5;" width="100.6729" x="1294.6074" y="1548.7344"/><text fill="#FFFFFF" font-family="sans-serif" font-size="14" lengthAdjust="spacing" textLength="86.6729" x="1301.6074" y="1568.7295">Escritor_N_1</text><rect fill="#222222" height="30.2969" rx="2.5" ry="2.5" style="stroke:#E7E7E7;stroke-width:0.5;" width="100.6729" x="1405.2803" y="1548.7344"/><text fill="#FFFFFF" font-family="sans-serif" font-size="14" lengthAdjust="spacing" textLength="86.6729" x="1412.2803" y="1568.7295">Escritor_N_2</text><rect fill="#222222" height="30.2969" rx="2.5" ry="2.5" style="stroke:#E7E7E7;stroke-width:0.5;" width="121.2012" x="1515.9531" y="1548.7344"/><text fill="#FFFFFF" font-family="sans-serif" font-size="14" lengthAdjust="spacing" textLength="107.2012" x="1522.9531" y="1568.7295">Manejador_N_1</text><rect fill="#222222" height="30.2969" rx="2.5" ry="2.5" style="stroke:#E7E7E7;stroke-width:0.5;" width="121.2012" x="1647.1543" y="1548.7344"/><text fill="#FFFFFF" font-family="sans-serif" font-size="14" lengthAdjust="spacing" textLength="107.2012" x="1654.1543" y="1568.7295">Manejador_1_N</text><rect fill="#222222" height="30.2969" rx="2.5" ry="2.5" style="stroke:#E7E7E7;stroke-width:0.5;" width="121.2012" x="1778.3555" y="1548.7344"/><text fill="#FFFFFF" font-family="sans-serif" font-size="14" lengthAdjust="spacing" textLength="107.2012" x="1785.3555" y="1568.7295">Manejador_N_2</text><rect fill="#222222" height="30.2969" rx="2.5" ry="2.5" style="stroke:#E7E7E7;stroke-width:0.5;" width="121.2012" x="1909.5566" y="1548.7344"/><text fill="#FFFFFF" font-family="sans-serif" font-size="14" lengthAdjust="spacing" textLength="107.2012" x="1916.5566" y="1568.7295">Manejador_2_N</text><polygon fill="#E7E7E7" points="96.8008,63.4297,86.8008,67.4297,96.8008,71.4297,92.8008,67.4297" style="stroke:#E7E7E7;stroke-width:1.0;"/><line style="stroke:#E7E7E7;stroke-width:1.0;" x1="90.8008" x2="142.6021" y1="67.4297" y2="67.4297"/><text fill="#FFFFFF" font-family="sans-serif" font-size="13" lengthAdjust="spacing" textLength="33.8013" x="102.8008" y="62.3638">crear</text><rect fill="#222222" height="30.2969" rx="2.5" ry="2.5" style="stroke:#E7E7E7;stroke-width:0.5;" width="80.8008" x="5" y="46.2969"/><text fill="#FFFFFF" font-family="sans-serif" font-size="14" lengthAdjust="spacing" textLength="66.8008" x="12" y="66.292">Oyente_1</text><polygon fill="#E7E7E7" points="189.4033,104.7266,199.4033,108.7266,189.4033,112.7266,193.4033,108.7266" style="stroke:#E7E7E7;stroke-width:1.0;"/><line style="stroke:#E7E7E7;stroke-width:1.0;" x1="143.6021" x2="195.4033" y1="108.7266" y2="108.7266"/><text fill="#FFFFFF" font-family="sans-serif" font-size="13" lengthAdjust="spacing" textLength="33.8013" x="150.6021" y="103.6606">crear</text><rect fill="#222222" height="30.2969" rx="2.5" ry="2.5" style="stroke:#E7E7E7;stroke-width:0.5;" width="99.1074" x="201.4033" y="87.5938"/><text fill="#FFFFFF" font-family="sans-serif" font-size="14" lengthAdjust="spacing" textLength="85.1074" x="208.4033" y="107.5889">Escritor_1_2</text><polygon fill="#E7E7E7" points="298.5107,146.0234,308.5107,150.0234,298.5107,154.0234,302.5107,150.0234" style="stroke:#E7E7E7;stroke-width:1.0;"/><line style="stroke:#E7E7E7;stroke-width:1.0;" x1="143.6021" x2="304.5107" y1="150.0234" y2="150.0234"/><text fill="#FFFFFF" font-family="sans-serif" font-size="13" lengthAdjust="spacing" textLength="33.8013" x="150.6021" y="144.9575">crear</text><rect fill="#222222" height="30.2969" rx="2.5" ry="2.5" style="stroke:#E7E7E7;stroke-width:0.5;" width="100.6729" x="310.5107" y="128.8906"/><text fill="#FFFFFF" font-family="sans-serif" font-size="14" lengthAdjust="spacing" textLength="86.6729" x="317.5107" y="148.8857">Escritor_1_N</text><polygon fill="#E7E7E7" points="512.9844,187.3203,502.9844,191.3203,512.9844,195.3203,508.9844,191.3203" style="stroke:#E7E7E7;stroke-width:1.0;"/><line style="stroke:#E7E7E7;stroke-width:1.0;" x1="506.9844" x2="558.7856" y1="191.3203" y2="191.3203"/><text fill="#FFFFFF" font-family="sans-serif" font-size="13" lengthAdjust="spacing" textLength="33.8013" x="518.9844" y="186.2544">crear</text><rect fill="#222222" height="30.2969" rx="2.5" ry="2.5" style="stroke:#E7E7E7;stroke-width:0.5;" width="80.8008" x="421.1836" y="170.1875"/><text fill="#FFFFFF" font-family="sans-serif" font-size="14" lengthAdjust="spacing" textLength="66.8008" x="428.1836" y="190.1826">Oyente_2</text><polygon fill="#E7E7E7" points="605.5869,228.6172,615.5869,232.6172,605.5869,236.6172,609.5869,232.6172" style="stroke:#E7E7E7;stroke-width:1.0;"/><line style="stroke:#E7E7E7;stroke-width:1.0;" x1="559.7856" x2="611.5869" y1="232.6172" y2="232.6172"/><text fill="#FFFFFF" font-family="sans-serif" font-size="13" lengthAdjust="spacing" textLength="33.8013" x="566.7856" y="227.5513">crear</text><rect fill="#222222" height="30.2969" rx="2.5" ry="2.5" style="stroke:#E7E7E7;stroke-width:0.5;" width="99.1074" x="617.5869" y="211.4844"/><text fill="#FFFFFF" font-family="sans-serif" font-size="14" lengthAdjust="spacing" textLength="85.1074" x="624.5869" y="231.4795">Escritor_2_1</text><polygon fill="#E7E7E7" points="714.6943,269.9141,724.6943,273.9141,714.6943,277.9141,718.6943,273.9141" style="stroke:#E7E7E7;stroke-width:1.0;"/><line style="stroke:#E7E7E7;stroke-width:1.0;" x1="559.7856" x2="720.6943" y1="273.9141" y2="273.9141"/><text fill="#FFFFFF" font-family="sans-serif" font-size="13" lengthAdjust="spacing" textLength="33.8013" x="566.7856" y="268.8481">crear</text><rect fill="#222222" height="30.2969" rx="2.5" ry="2.5" style="stroke:#E7E7E7;stroke-width:0.5;" width="100.6729" x="726.6943" y="252.7813"/><text fill="#FFFFFF" font-family="sans-serif" font-size="14" lengthAdjust="spacing" textLength="86.6729" x="733.6943" y="272.7764">Escritor_2_N</text><polygon fill="#E7E7E7" points="449.584,311.2109,459.584,315.2109,449.584,319.2109,453.584,315.2109" style="stroke:#E7E7E7;stroke-width:1.0;"/><line style="stroke:#E7E7E7;stroke-width:1.0;" x1="250.957" x2="455.584" y1="315.2109" y2="315.2109"/><text fill="#FFFFFF" font-family="sans-serif" font-size="13" lengthAdjust="spacing" textLength="55.25" x="257.957" y="310.145">mensaje</text><polygon fill="#E7E7E7" points="825.3672,340.3438,835.3672,344.3438,825.3672,348.3438,829.3672,344.3438" style="stroke:#E7E7E7;stroke-width:1.0;"/><line style="stroke:#E7E7E7;stroke-width:1.0;" x1="461.584" x2="831.3672" y1="344.3438" y2="344.3438"/><text fill="#FFFFFF" font-family="sans-serif" font-size="13" lengthAdjust="spacing" textLength="49.772" x="468.584" y="339.2778">aceptar</text><rect fill="#222222" height="30.2969" rx="2.5" ry="2.5" style="stroke:#E7E7E7;stroke-width:0.5;" width="119.6357" x="837.3672" y="323.2109"/><text fill="#FFFFFF" font-family="sans-serif" font-size="14" lengthAdjust="spacing" textLength="105.6357" x="844.3672" y="343.2061">Manejador_2_1</text><polygon fill="#E7E7E7" points="261.957,381.6406,251.957,385.6406,261.957,389.6406,257.957,385.6406" style="stroke:#E7E7E7;stroke-width:1.0;"/><line style="stroke:#E7E7E7;stroke-width:1.0;" x1="255.957" x2="896.1851" y1="385.6406" y2="385.6406"/><text fill="#FFFFFF" font-family="sans-serif" font-size="13" lengthAdjust="spacing" textLength="39.146" x="267.957" y="380.5747">cerrar</text><line style="stroke:#A80036;stroke-width:2.0;" x1="241.957" x2="259.957" y1="376.6406" y2="394.6406"/><line style="stroke:#A80036;stroke-width:2.0;" x1="241.957" x2="259.957" y1="394.6406" y2="376.6406"/><line style="stroke:#A80036;stroke-width:2.0;" x1="888.1851" x2="906.1851" y1="376.6406" y2="394.6406"/><line style="stroke:#A80036;stroke-width:2.0;" x1="888.1851" x2="906.1851" y1="394.6406" y2="376.6406"/><polygon fill="#E7E7E7" points="56.4004,410.7734,46.4004,414.7734,56.4004,418.7734,52.4004,414.7734" style="stroke:#E7E7E7;stroke-width:1.0;"/><line style="stroke:#E7E7E7;stroke-width:1.0;" x1="50.4004" x2="666.1406" y1="414.7734" y2="414.7734"/><text fill="#FFFFFF" font-family="sans-serif" font-size="13" lengthAdjust="spacing" textLength="55.25" x="62.4004" y="409.7075">mensaje</text><polygon fill="#E7E7E7" points="955.0029,439.9063,965.0029,443.9063,955.0029,447.9063,959.0029,443.9063" style="stroke:#E7E7E7;stroke-width:1.0;"/><line style="stroke:#E7E7E7;stroke-width:1.0;" x1="45.4004" x2="961.0029" y1="443.9063" y2="443.9063"/><text fill="#FFFFFF" font-family="sans-serif" font-size="13" lengthAdjust="spacing" textLength="49.772" x="52.4004" y="438.8403">aceptar</text><rect fill="#222222" height="30.2969" rx="2.5" ry="2.5" style="stroke:#E7E7E7;stroke-width:0.5;" width="119.6357" x="967.0029" y="422.7734"/><text fill="#FFFFFF" font-family="sans-serif" font-size="14" lengthAdjust="spacing" textLength="105.6357" x="974.0029" y="442.7686">Manejador_1_2</text><polygon fill="#E7E7E7" points="678.1406,481.2031,668.1406,485.2031,678.1406,489.2031,674.1406,485.2031" style="stroke:#E7E7E7;stroke-width:1.0;"/><line style="stroke:#E7E7E7;stroke-width:1.0;" x1="672.1406" x2="1025.8208" y1="485.2031" y2="485.2031"/><text fill="#FFFFFF" font-family="sans-serif" font-size="13" lengthAdjust="spacing" textLength="39.146" x="684.1406" y="480.1372">cerrar</text><line style="stroke:#A80036;stroke-width:2.0;" x1="658.1406" x2="676.1406" y1="476.2031" y2="494.2031"/><line style="stroke:#A80036;stroke-width:2.0;" x1="658.1406" x2="676.1406" y1="494.2031" y2="476.2031"/><line style="stroke:#A80036;stroke-width:2.0;" x1="1017.8208" x2="1035.8208" y1="476.2031" y2="494.2031"/><line style="stroke:#A80036;stroke-width:2.0;" x1="1017.8208" x2="1035.8208" y1="494.2031" y2="476.2031"/><polygon fill="#E7E7E7" points="1190.0049,510.3359,1180.0049,514.3359,1190.0049,518.3359,1186.0049,514.3359" style="stroke:#E7E7E7;stroke-width:1.0;"/><line style="stroke:#E7E7E7;stroke-width:1.0;" x1="1184.0049" x2="1235.8062" y1="514.3359" y2="514.3359"/><text fill="#FFFFFF" font-family="sans-serif" font-size="13" lengthAdjust="spacing" textLength="33.8013" x="1196.0049" y="509.27">crear</text><rect fill="#222222" height="30.2969" rx="2.5" ry="2.5" style="stroke:#E7E7E7;stroke-width:0.5;" width="82.3662" x="1096.6387" y="493.2031"/><text fill="#FFFFFF" font-family="sans-serif" font-size="14" lengthAdjust="spacing" textLength="68.3662" x="1103.6387" y="513.1982">Oyente_N</text><polygon fill="#E7E7E7" points="1282.6074,551.6328,1292.6074,555.6328,1282.6074,559.6328,1286.6074,555.6328" style="stroke:#E7E7E7;stroke-width:1.0;"/><line style="stroke:#E7E7E7;stroke-width:1.0;" x1="1236.8062" x2="1288.6074" y1="555.6328" y2="555.6328"/><text fill="#FFFFFF" font-family="sans-serif" font-size="13" lengthAdjust="spacing" textLength="33.8013" x="1243.8062" y="550.5669">crear</text><rect fill="#222222" height="30.2969" rx="2.5" ry="2.5" style="stroke:#E7E7E7;stroke-width:0.5;" width="100.6729" x="1294.6074" y="534.5"/><text fill="#FFFFFF" font-family="sans-serif" font-size="14" lengthAdjust="spacing" textLength="86.6729" x="1301.6074" y="554.4951">Escritor_N_1</text><polygon fill="#E7E7E7" points="1393.2803,592.9297,1403.2803,596.9297,1393.2803,600.9297,1397.2803,596.9297" style="stroke:#E7E7E7;stroke-width:1.0;"/><line style="stroke:#E7E7E7;stroke-width:1.0;" x1="1236.8062" x2="1399.2803" y1="596.9297" y2="596.9297"/><text fill="#FFFFFF" font-family="sans-serif" font-size="13" lengthAdjust="spacing" textLength="33.8013" x="1243.8062" y="591.8638">crear</text><rect fill="#222222" height="30.2969" rx="2.5" ry="2.5" style="stroke:#E7E7E7;stroke-width:0.5;" width="100.6729" x="1405.2803" y="575.7969"/><text fill="#FFFFFF" font-family="sans-serif" font-size="14" lengthAdjust="spacing" textLength="86.6729" x="1412.2803" y="595.792">Escritor_N_2</text><polygon fill="#E7E7E7" points="1125.8218,634.2266,1135.8218,638.2266,1125.8218,642.2266,1129.8218,638.2266" style="stroke:#E7E7E7;stroke-width:1.0;"/><line style="stroke:#E7E7E7;stroke-width:1.0;" x1="360.8472" x2="1131.8218" y1="638.2266" y2="638.2266"/><text fill="#FFFFFF" font-family="sans-serif" font-size="13" lengthAdjust="spacing" textLength="55.25" x="367.8472" y="633.1606">mensaje</text><polygon fill="#E7E7E7" points="1503.9531,663.3594,1513.9531,667.3594,1503.9531,671.3594,1507.9531,667.3594" style="stroke:#E7E7E7;stroke-width:1.0;"/><line style="stroke:#E7E7E7;stroke-width:1.0;" x1="1137.8218" x2="1509.9531" y1="667.3594" y2="667.3594"/><text fill="#FFFFFF" font-family="sans-serif" font-size="13" lengthAdjust="spacing" textLength="49.772" x="1144.8218" y="662.2935">aceptar</text><rect fill="#222222" height="30.2969" rx="2.5" ry="2.5" style="stroke:#E7E7E7;stroke-width:0.5;" width="121.2012" x="1515.9531" y="646.2266"/><text fill="#FFFFFF" font-family="sans-serif" font-size="14" lengthAdjust="spacing" textLength="107.2012" x="1522.9531" y="666.2217">Manejador_N_1</text><polygon fill="#E7E7E7" points="154.6021,704.6563,144.6021,708.6563,154.6021,712.6563,150.6021,708.6563" style="stroke:#E7E7E7;stroke-width:1.0;"/><line style="stroke:#E7E7E7;stroke-width:1.0;" x1="148.6021" x2="359.8472" y1="708.6563" y2="708.6563"/><text fill="#FFFFFF" font-family="sans-serif" font-size="13" lengthAdjust="spacing" textLength="16.4277" x="160.6021" y="703.5903">fin</text><polygon fill="#E7E7E7" points="371.8472,733.7891,361.8472,737.7891,371.8472,741.7891,367.8472,737.7891" style="stroke:#E7E7E7;stroke-width:1.0;"/><line style="stroke:#E7E7E7;stroke-width:1.0;" x1="365.8472" x2="1575.5537" y1="737.7891" y2="737.7891"/><text fill="#FFFFFF" font-family="sans-serif" font-size="13" lengthAdjust="spacing" textLength="39.146" x="377.8472" y="732.7231">cerrar</text><line style="stroke:#A80036;stroke-width:2.0;" x1="351.8472" x2="369.8472" y1="728.7891" y2="746.7891"/><line style="stroke:#A80036;stroke-width:2.0;" x1="351.8472" x2="369.8472" y1="746.7891" y2="728.7891"/><line style="stroke:#A80036;stroke-width:2.0;" x1="1567.5537" x2="1585.5537" y1="728.7891" y2="746.7891"/><line style="stroke:#A80036;stroke-width:2.0;" x1="1567.5537" x2="1585.5537" y1="746.7891" y2="728.7891"/><polygon fill="#E7E7E7" points="56.4004,762.9219,46.4004,766.9219,56.4004,770.9219,52.4004,766.9219" style="stroke:#E7E7E7;stroke-width:1.0;"/><line style="stroke:#E7E7E7;stroke-width:1.0;" x1="50.4004" x2="1343.9438" y1="766.9219" y2="766.9219"/><text fill="#FFFFFF" font-family="sans-serif" font-size="13" lengthAdjust="spacing" textLength="55.25" x="62.4004" y="761.856">mensaje</text><polygon fill="#E7E7E7" points="1635.1543,792.0547,1645.1543,796.0547,1635.1543,800.0547,1639.1543,796.0547" style="stroke:#E7E7E7;stroke-width:1.0;"/><line style="stroke:#E7E7E7;stroke-width:1.0;" x1="45.4004" x2="1641.1543" y1="796.0547" y2="796.0547"/><text fill="#FFFFFF" font-family="sans-serif" font-size="13" lengthAdjust="spacing" textLength="49.772" x="52.4004" y="790.9888">aceptar</text><rect fill="#222222" height="30.2969" rx="2.5" ry="2.5" style="stroke:#E7E7E7;stroke-width:0.5;" width="121.2012" x="1647.1543" y="774.9219"/><text fill="#FFFFFF" font-family="sans-serif" font-size="14" lengthAdjust="spacing" textLength="107.2012" x="1654.1543" y="794.917">Manejador_1_N</text><polygon fill="#E7E7E7" points="154.6021,833.3516,144.6021,837.3516,154.6021,841.3516,150.6021,837.3516" style="stroke:#E7E7E7;stroke-width:1.0;"/><line style="stroke:#E7E7E7;stroke-width:1.0;" x1="148.6021" x2="1706.7549" y1="837.3516" y2="837.3516"/><text fill="#FFFFFF" font-family="sans-serif" font-size="13" lengthAdjust="spacing" textLength="62.9878" x="160.6021" y="832.2856">barrera_1</text><polygon fill="#E7E7E7" points="570.7856,862.4844,560.7856,866.4844,570.7856,870.4844,566.7856,866.4844" style="stroke:#E7E7E7;stroke-width:1.0;"/><line style="stroke:#E7E7E7;stroke-width:1.0;" x1="564.7856" x2="1706.7549" y1="866.4844" y2="866.4844"/><text fill="#FFFFFF" font-family="sans-serif" font-size="13" lengthAdjust="spacing" textLength="62.9878" x="576.7856" y="861.4185">barrera_1</text><polygon fill="#E7E7E7" points="1247.8062,891.6172,1237.8062,895.6172,1247.8062,899.6172,1243.8062,895.6172" style="stroke:#E7E7E7;stroke-width:1.0;"/><line style="stroke:#E7E7E7;stroke-width:1.0;" x1="1241.8062" x2="1706.7549" y1="895.6172" y2="895.6172"/><text fill="#FFFFFF" font-family="sans-serif" font-size="13" lengthAdjust="spacing" textLength="62.9878" x="1253.8062" y="890.5513">barrera_1</text><polygon fill="#E7E7E7" points="1355.9438,920.75,1345.9438,924.75,1355.9438,928.75,1351.9438,924.75" style="stroke:#E7E7E7;stroke-width:1.0;"/><line style="stroke:#E7E7E7;stroke-width:1.0;" x1="1349.9438" x2="1706.7549" y1="924.75" y2="924.75"/><text fill="#FFFFFF" font-family="sans-serif" font-size="13" lengthAdjust="spacing" textLength="39.146" x="1361.9438" y="919.6841">cerrar</text><line style="stroke:#A80036;stroke-width:2.0;" x1="1335.9438" x2="1353.9438" y1="915.75" y2="933.75"/><line style="stroke:#A80036;stroke-width:2.0;" x1="1335.9438" x2="1353.9438" y1="933.75" y2="915.75"/><line style="stroke:#A80036;stroke-width:2.0;" x1="1698.7549" x2="1716.7549" y1="915.75" y2="933.75"/><line style="stroke:#A80036;stroke-width:2.0;" x1="1698.7549" x2="1716.7549" y1="933.75" y2="915.75"/><polygon fill="#E7E7E7" points="1125.8218,949.8828,1135.8218,953.8828,1125.8218,957.8828,1129.8218,953.8828" style="stroke:#E7E7E7;stroke-width:1.0;"/><line style="stroke:#E7E7E7;stroke-width:1.0;" x1="777.0308" x2="1131.8218" y1="953.8828" y2="953.8828"/><text fill="#FFFFFF" font-family="sans-serif" font-size="13" lengthAdjust="spacing" textLength="55.25" x="784.0308" y="948.8169">mensaje</text><polygon fill="#E7E7E7" points="1766.3555,979.0156,1776.3555,983.0156,1766.3555,987.0156,1770.3555,983.0156" style="stroke:#E7E7E7;stroke-width:1.0;"/><line style="stroke:#E7E7E7;stroke-width:1.0;" x1="1137.8218" x2="1772.3555" y1="983.0156" y2="983.0156"/><text fill="#FFFFFF" font-family="sans-serif" font-size="13" lengthAdjust="spacing" textLength="49.772" x="1144.8218" y="977.9497">aceptar</text><rect fill="#222222" height="30.2969" rx="2.5" ry="2.5" style="stroke:#E7E7E7;stroke-width:0.5;" width="121.2012" x="1778.3555" y="961.8828"/><text fill="#FFFFFF" font-family="sans-serif" font-size="14" lengthAdjust="spacing" textLength="107.2012" x="1785.3555" y="981.8779">Manejador_N_2</text><polygon fill="#E7E7E7" points="570.7856,1020.3125,560.7856,1024.3125,570.7856,1028.3125,566.7856,1024.3125" style="stroke:#E7E7E7;stroke-width:1.0;"/><line style="stroke:#E7E7E7;stroke-width:1.0;" x1="564.7856" x2="776.0308" y1="1024.3125" y2="1024.3125"/><text fill="#FFFFFF" font-family="sans-serif" font-size="13" lengthAdjust="spacing" textLength="16.4277" x="576.7856" y="1019.2466">fin</text><polygon fill="#E7E7E7" points="154.6021,1049.4453,144.6021,1053.4453,154.6021,1057.4453,150.6021,1053.4453" style="stroke:#E7E7E7;stroke-width:1.0;"/><line style="stroke:#E7E7E7;stroke-width:1.0;" x1="148.6021" x2="1837.9561" y1="1053.4453" y2="1053.4453"/><text fill="#FFFFFF" font-family="sans-serif" font-size="13" lengthAdjust="spacing" textLength="62.9878" x="160.6021" y="1048.3794">barrera_2</text><polygon fill="#E7E7E7" points="570.7856,1078.5781,560.7856,1082.5781,570.7856,1086.5781,566.7856,1082.5781" style="stroke:#E7E7E7;stroke-width:1.0;"/><line style="stroke:#E7E7E7;stroke-width:1.0;" x1="564.7856" x2="1837.9561" y1="1082.5781" y2="1082.5781"/><text fill="#FFFFFF" font-family="sans-serif" font-size="13" lengthAdjust="spacing" textLength="62.9878" x="576.7856" y="1077.5122">barrera_2</text><polygon fill="#E7E7E7" points="1247.8062,1107.7109,1237.8062,1111.7109,1247.8062,1115.7109,1243.8062,1111.7109" style="stroke:#E7E7E7;stroke-width:1.0;"/><line style="stroke:#E7E7E7;stroke-width:1.0;" x1="1241.8062" x2="1837.9561" y1="1111.7109" y2="1111.7109"/><text fill="#FFFFFF" font-family="sans-serif" font-size="13" lengthAdjust="spacing" textLength="62.9878" x="1253.8062" y="1106.645">barrera_2</text><polygon fill="#E7E7E7" points="788.0308,1136.8438,778.0308,1140.8438,788.0308,1144.8438,784.0308,1140.8438" style="stroke:#E7E7E7;stroke-width:1.0;"/><line style="stroke:#E7E7E7;stroke-width:1.0;" x1="782.0308" x2="1837.9561" y1="1140.8438" y2="1140.8438"/><text fill="#FFFFFF" font-family="sans-serif" font-size="13" lengthAdjust="spacing" textLength="39.146" x="794.0308" y="1135.7778">cerrar</text><line style="stroke:#A80036;stroke-width:2.0;" x1="768.0308" x2="786.0308" y1="1131.8438" y2="1149.8438"/><line style="stroke:#A80036;stroke-width:2.0;" x1="768.0308" x2="786.0308" y1="1149.8438" y2="1131.8438"/><line style="stroke:#A80036;stroke-width:2.0;" x1="1829.9561" x2="1847.9561" y1="1131.8438" y2="1149.8438"/><line style="stroke:#A80036;stroke-width:2.0;" x1="1829.9561" x2="1847.9561" y1="1149.8438" y2="1131.8438"/><polygon fill="#E7E7E7" points="472.584,1165.9766,462.584,1169.9766,472.584,1173.9766,468.584,1169.9766" style="stroke:#E7E7E7;stroke-width:1.0;"/><line style="stroke:#E7E7E7;stroke-width:1.0;" x1="466.584" x2="1454.6167" y1="1169.9766" y2="1169.9766"/><text fill="#FFFFFF" font-family="sans-serif" font-size="13" lengthAdjust="spacing" textLength="55.25" x="478.584" y="1164.9106">mensaje</text><polygon fill="#E7E7E7" points="1897.5566,1195.1094,1907.5566,1199.1094,1897.5566,1203.1094,1901.5566,1199.1094" style="stroke:#E7E7E7;stroke-width:1.0;"/><line style="stroke:#E7E7E7;stroke-width:1.0;" x1="461.584" x2="1903.5566" y1="1199.1094" y2="1199.1094"/><text fill="#FFFFFF" font-family="sans-serif" font-size="13" lengthAdjust="spacing" textLength="49.772" x="468.584" y="1194.0435">aceptar</text><rect fill="#222222" height="30.2969" rx="2.5" ry="2.5" style="stroke:#E7E7E7;stroke-width:0.5;" width="121.2012" x="1909.5566" y="1177.9766"/><text fill="#FFFFFF" font-family="sans-serif" font-size="14" lengthAdjust="spacing" textLength="107.2012" x="1916.5566" y="1197.9717">Manejador_2_N</text><polygon fill="#E7E7E7" points="1247.8062,1236.4063,1237.8062,1240.4063,1247.8062,1244.4063,1243.8062,1240.4063" style="stroke:#E7E7E7;stroke-width:1.0;"/><line style="stroke:#E7E7E7;stroke-width:1.0;" x1="1241.8062" x2="1454.6167" y1="1240.4063" y2="1240.4063"/><text fill="#FFFFFF" font-family="sans-serif" font-size="13" lengthAdjust="spacing" textLength="16.4277" x="1253.8062" y="1235.3403">fin</text><polygon fill="#E7E7E7" points="154.6021,1265.5391,144.6021,1269.5391,154.6021,1273.5391,150.6021,1269.5391" style="stroke:#E7E7E7;stroke-width:1.0;"/><line style="stroke:#E7E7E7;stroke-width:1.0;" x1="148.6021" x2="1969.1572" y1="1269.5391" y2="1269.5391"/><text fill="#FFFFFF" font-family="sans-serif" font-size="13" lengthAdjust="spacing" textLength="64.4414" x="160.6021" y="1264.4731">barrera_N</text><polygon fill="#E7E7E7" points="570.7856,1294.6719,560.7856,1298.6719,570.7856,1302.6719,566.7856,1298.6719" style="stroke:#E7E7E7;stroke-width:1.0;"/><line style="stroke:#E7E7E7;stroke-width:1.0;" x1="564.7856" x2="1969.1572" y1="1298.6719" y2="1298.6719"/><text fill="#FFFFFF" font-family="sans-serif" font-size="13" lengthAdjust="spacing" textLength="64.4414" x="576.7856" y="1293.606">barrera_N</text><polygon fill="#E7E7E7" points="1247.8062,1323.8047,1237.8062,1327.8047,1247.8062,1331.8047,1243.8062,1327.8047" style="stroke:#E7E7E7;stroke-width:1.0;"/><line style="stroke:#E7E7E7;stroke-width:1.0;" x1="1241.8062" x2="1969.1572" y1="1327.8047" y2="1327.8047"/><text fill="#FFFFFF" font-family="sans-serif" font-size="13" lengthAdjust="spacing" textLength="64.4414" x="1253.8062" y="1322.7388">barrera_N</text><polygon fill="#E7E7E7" points="1466.6167,1352.9375,1456.6167,1356.9375,1466.6167,1360.9375,1462.6167,1356.9375" style="stroke:#E7E7E7;stroke-width:1.0;"/><line style="stroke:#E7E7E7;stroke-width:1.0;" x1="1460.6167" x2="1969.1572" y1="1356.9375" y2="1356.9375"/><text fill="#FFFFFF" font-family="sans-serif" font-size="13" lengthAdjust="spacing" textLength="39.146" x="1472.6167" y="1351.8716">cerrar</text><line style="stroke:#A80036;stroke-width:2.0;" x1="1446.6167" x2="1464.6167" y1="1347.9375" y2="1365.9375"/><line style="stroke:#A80036;stroke-width:2.0;" x1="1446.6167" x2="1464.6167" y1="1365.9375" y2="1347.9375"/><line style="stroke:#A80036;stroke-width:2.0;" x1="1961.1572" x2="1979.1572" y1="1347.9375" y2="1365.9375"/><line style="stroke:#A80036;stroke-width:2.0;" x1="1961.1572" x2="1979.1572" y1="1365.9375" y2="1347.9375"/><polygon fill="#E7E7E7" points="56.4004,1382.0703,46.4004,1386.0703,56.4004,1390.0703,52.4004,1386.0703" style="stroke:#E7E7E7;stroke-width:1.0;"/><line style="stroke:#E7E7E7;stroke-width:1.0;" x1="50.4004" x2="142.6021" y1="1386.0703" y2="1386.0703"/><text fill="#FFFFFF" font-family="sans-serif" font-size="13" lengthAdjust="spacing" textLength="50.9272" x="62.4004" y="1381.0044">detener</text><polygon fill="#E7E7E7" points="472.584,1411.2031,462.584,1415.2031,472.584,1419.2031,468.584,1415.2031" style="stroke:#E7E7E7;stroke-width:1.0;"/><line style="stroke:#E7E7E7;stroke-width:1.0;" x1="466.584" x2="558.7856" y1="1415.2031" y2="1415.2031"/><text fill="#FFFFFF" font-family="sans-serif" font-size="13" lengthAdjust="spacing" textLength="50.9272" x="478.584" y="1410.1372">detener</text><polygon fill="#E7E7E7" points="1148.8218,1440.3359,1138.8218,1444.3359,1148.8218,1448.3359,1144.8218,1444.3359" style="stroke:#E7E7E7;stroke-width:1.0;"/><line style="stroke:#E7E7E7;stroke-width:1.0;" x1="1142.8218" x2="1235.8062" y1="1444.3359" y2="1444.3359"/><text fill="#FFFFFF" font-family="sans-serif" font-size="13" lengthAdjust="spacing" textLength="50.9272" x="1154.8218" y="1439.27">detener</text><line style="stroke:#A80036;stroke-width:2.0;" x1="36.4004" x2="54.4004" y1="1435.3359" y2="1453.3359"/><line style="stroke:#A80036;stroke-width:2.0;" x1="36.4004" x2="54.4004" y1="1453.3359" y2="1435.3359"/><polygon fill="#E7E7E7" points="56.4004,1469.4688,46.4004,1473.4688,56.4004,1477.4688,52.4004,1473.4688" style="stroke:#E7E7E7;stroke-width:1.0;"/><line style="stroke:#E7E7E7;stroke-width:1.0;" x1="50.4004" x2="142.6021" y1="1473.4688" y2="1473.4688"/><text fill="#FFFFFF" font-family="sans-serif" font-size="13" lengthAdjust="spacing" textLength="39.146" x="62.4004" y="1468.4028">cerrar</text><line style="stroke:#A80036;stroke-width:2.0;" x1="452.584" x2="470.584" y1="1464.4688" y2="1482.4688"/><line style="stroke:#A80036;stroke-width:2.0;" x1="452.584" x2="470.584" y1="1482.4688" y2="1464.4688"/><polygon fill="#E7E7E7" points="472.584,1498.6016,462.584,1502.6016,472.584,1506.6016,468.584,1502.6016" style="stroke:#E7E7E7;stroke-width:1.0;"/><line style="stroke:#E7E7E7;stroke-width:1.0;" x1="466.584" x2="558.7856" y1="1502.6016" y2="1502.6016"/><text fill="#FFFFFF" font-family="sans-serif" font-size="13" lengthAdjust="spacing" textLength="39.146" x="478.584" y="1497.5356">cerrar</text><line style="stroke:#A80036;stroke-width:2.0;" x1="1128.8218" x2="1146.8218" y1="1493.6016" y2="1511.6016"/><line style="stroke:#A80036;stroke-width:2.0;" x1="1128.8218" x2="1146.8218" y1="1511.6016" y2="1493.6016"/><polygon fill="#E7E7E7" points="1148.8218,1527.7344,1138.8218,1531.7344,1148.8218,1535.7344,1144.8218,1531.7344" style="stroke:#E7E7E7;stroke-width:1.0;"/><line style="stroke:#E7E7E7;stroke-width:1.0;" x1="1142.8218" x2="1235.8062" y1="1531.7344" y2="1531.7344"/><text fill="#FFFFFF" font-family="sans-serif" font-size="13" lengthAdjust="spacing" textLength="39.146" x="1154.8218" y="1526.6685">cerrar</text><!--SRC=[bLKnSeGm3Env1Hz8WSehqgMCaXymZb5cxcO26UFcVX-uEuCbl1nfxPMqqgvb7yH5gJ-kqaTfc-ep35x6eMtgbzVbz5Jx2HOgVmU_ZJwSun3QfYKTaD_W88P1d89Ir8F1MeOoNh04POsGAa6u6SfusQ2LLzwXfl8Z_UWkalA-krukhdkmIR0vHDsSQkVbDqwfrN5Xc1B2XEfaZ66uQWtIeQvPvLrhEI7NELk2QQut4bkkJN70WElCQijrhcdqNfNWZ3WZwJZJcnKTndfpvYeRH2Mz3HKuGrxrPZr3plMscPStSQg_ptsbeWhF1Dg12oDcPGV-XnqOse7BTh2zVBaG9BY904JH8HJleepYO3eC3CZgiHmNcg3GL12QDcrReGaCZp2A3g5u5sKs7NozPMkHijRnhSXmAt9XUDk6zF08EeynYWwXU1TbrWPqNdbDJyu3NsudKNe9wEUpryQqwNef-lI7ryIVVhn5EDxRD_WV]--></g></svg>